<?xml version="1.0" encoding="UTF-8"?>
<svg id="_Слой_2" data-name="Слой 2" xmlns="http://www.w3.org/2000/svg" viewBox="0 0 571.53 353.1">
  <defs>
    <style>
      .cls-1 {
        fill: #fff;
      }
    </style>
  </defs>
  <g id="_Слой_1-2" data-name="Слой 1">
    <g>
      <path class="cls-1" d="M365.28,199.34v100.65c0,11.41-.68,19.43-2.06,24.05-1.37,4.62-5.43,9.36-12.17,14.23-6.74,4.87-15.62,8.56-26.64,11.07-11.02,2.51-24.02,3.77-38.98,3.77-16.56,0-31.18-1.49-43.86-4.47-12.68-2.98-22.16-6.85-28.44-11.63-6.28-4.77-10-9.81-11.14-15.12-1.14-5.3-1.71-16.45-1.71-33.44v-123.45h72.13v147.27c0,6.57,.66,10.78,1.97,12.6,1.31,1.83,3.97,2.74,7.97,2.74,4.57,0,7.51-1.01,8.82-3.02,1.31-2.01,1.97-6.78,1.97-14.28v-110.98h72.13Z"/>
      <path class="cls-1" d="M571.53,66.49V254.1c0,21.27-.68,36.21-2.06,44.82-1.37,8.61-5.43,17.45-12.17,26.53-6.74,9.08-15.62,15.95-26.64,20.63-11.02,4.68-24.02,7.02-38.98,7.02-16.56,0-31.18-2.78-43.86-8.32-12.68-5.55-22.16-12.77-28.44-21.67-6.28-8.9-10-18.29-11.14-28.18-1.14-9.88-1.71-30.66-1.71-62.33V2.48h72.13V276.98c0,12.25,.66,20.09,1.97,23.49,1.31,3.41,3.97,5.12,7.97,5.12,4.57,0,7.51-1.88,8.82-5.63,1.31-3.75,1.97-12.63,1.97-26.62V66.49h72.13Z"/>
      <path class="cls-1" d="M200.28,153.77V53.12c0-11.41,.68-19.43,2.06-24.05,1.37-4.62,5.43-9.36,12.17-14.23,6.74-4.87,15.62-8.56,26.64-11.07C252.17,1.26,265.17,0,280.13,0c16.56,0,31.18,1.49,43.86,4.47s22.16,6.85,28.44,11.63c6.28,4.77,10,9.81,11.14,15.12,1.14,5.3,1.71,16.45,1.71,33.44v123.45h-72.13V40.84c0-6.57-.66-10.78-1.97-12.6-1.31-1.83-3.97-2.74-7.97-2.74-4.57,0-7.51,1.01-8.82,3.02-1.31,2.01-1.97,6.78-1.97,14.28v110.98h-72.13Z"/>
      <path class="cls-1" d="M163.28,58.58c-1.14-9.95-4.85-19.41-11.14-28.38-6.28-8.97-15.76-16.24-28.44-21.83C111.03,2.79,96.41,0,79.84,0c-14.96,0-27.96,2.36-38.98,7.07-11.02,4.72-19.9,11.64-26.64,20.78C7.48,36.99,3.43,45.89,2.06,54.57,.68,63.24,0,78.29,0,99.71v188.94H72.13v-100.54h20.73v165h72.13V121.36c0-31.9-.57-52.82-1.71-62.77Zm-70.42,88.27h-20.73V80.32c0-14.09,.66-23.02,1.97-26.8,1.31-3.78,4.26-5.67,8.82-5.67,4,0,6.66,1.72,7.97,5.15,1.31,3.43,1.97,11.32,1.97,23.66v70.2Z"/>
    </g>
  </g>
</svg>