<svg width="24" height="24" viewBox="0 0 24 24" fill="none" xmlns="http://www.w3.org/2000/svg">
<path d="M18.4041 2.99808C17.6471 2.24408 16.3271 2.24708 15.5761 3.00308L13.7921 4.79408L11.5861 7.00008H7.00008C6.79491 6.99994 6.59468 7.06303 6.42665 7.18077C6.25863 7.29851 6.13098 7.46518 6.06108 7.65808L2.06108 18.6581C1.92808 19.0231 2.01908 19.4321 2.29308 19.7071L4.29308 21.7071C4.42753 21.8419 4.59776 21.9353 4.78366 21.9765C4.96955 22.0176 5.16332 22.0046 5.34208 21.9391L16.3421 17.9391C16.535 17.8692 16.7016 17.7415 16.8194 17.5735C16.9371 17.4055 17.0002 17.2053 17.0001 17.0001V12.4141L19.2071 10.2071L19.2081 10.2061L21.0001 8.40908C21.3781 8.03108 21.5861 7.52808 21.5851 6.99408C21.5851 6.45908 21.3761 5.95608 20.9971 5.57908L18.4041 2.99808ZM15.2931 11.2931C15.2 11.3858 15.1262 11.496 15.076 11.6173C15.0257 11.7387 14.9999 11.8687 15.0001 12.0001V16.3001L5.75108 19.6631L10.4221 14.9921C10.4481 14.9931 10.4741 15.0001 10.5001 15.0001C10.7968 15.0001 11.0868 14.9121 11.3334 14.7473C11.5801 14.5825 11.7724 14.3482 11.8859 14.0741C11.9994 13.8 12.0291 13.4984 11.9713 13.2074C11.9134 12.9165 11.7705 12.6492 11.5607 12.4394C11.351 12.2296 11.0837 12.0868 10.7927 12.0289C10.5017 11.971 10.2001 12.0007 9.92605 12.1143C9.65196 12.2278 9.4177 12.4201 9.25287 12.6667C9.08805 12.9134 9.00008 13.2034 9.00008 13.5001C9.00008 13.5261 9.00708 13.5521 9.00808 13.5781L4.33708 18.2491L7.70008 9.00008H12.0001C12.2661 9.00008 12.5201 8.89508 12.7071 8.70708L14.5001 6.91408L17.0861 9.50008L15.2931 11.2931ZM18.4991 8.08508L15.9131 5.49908L16.9921 4.41508L19.5851 6.99608L18.4991 8.08508Z" fill="white"/>
</svg>
